<mxfile host="Electron" modified="2023-10-24T07:53:13.180Z" agent="Mozilla/5.0 (X11; Linux x86_64) AppleWebKit/537.36 (KHTML, like Gecko) draw.io/22.0.3 Chrome/114.0.5735.289 Electron/25.8.4 Safari/537.36" etag="W_JrdYUtogjJdBt_ekyM" version="22.0.3" type="device">
  <diagram id="C5RBs43oDa-KdzZeNtuy" name="Page-1">
    <mxGraphModel dx="729" dy="1021" grid="1" gridSize="10" guides="1" tooltips="1" connect="1" arrows="1" fold="1" page="1" pageScale="1" pageWidth="827" pageHeight="1169" background="#ffffff" math="0" shadow="0">
      <root>
        <mxCell id="WIyWlLk6GJQsqaUBKTNV-0" />
        <mxCell id="WIyWlLk6GJQsqaUBKTNV-1" parent="WIyWlLk6GJQsqaUBKTNV-0" />
        <mxCell id="vsL5W6VhsvwQeHXMyWO6-2" style="edgeStyle=orthogonalEdgeStyle;shape=connector;rounded=0;orthogonalLoop=1;jettySize=auto;html=1;labelBackgroundColor=default;strokeColor=#000000;align=center;verticalAlign=middle;fontFamily=Helvetica;fontSize=11;fontColor=default;endArrow=classic;" edge="1" parent="WIyWlLk6GJQsqaUBKTNV-1" source="WIyWlLk6GJQsqaUBKTNV-3" target="vsL5W6VhsvwQeHXMyWO6-1">
          <mxGeometry relative="1" as="geometry" />
        </mxCell>
        <mxCell id="WIyWlLk6GJQsqaUBKTNV-3" value="&lt;font color=&quot;#000000&quot;&gt;Начало&lt;/font&gt;" style="rounded=1;whiteSpace=wrap;html=1;fontSize=12;glass=0;strokeWidth=1;shadow=0;arcSize=50;strokeColor=#000000;fillColor=none;" parent="WIyWlLk6GJQsqaUBKTNV-1" vertex="1">
          <mxGeometry x="160" y="80" width="120" height="30" as="geometry" />
        </mxCell>
        <mxCell id="Qi15xtnJ09Df0GoSAWtn-0" value="&lt;font color=&quot;#191919&quot;&gt;get_middle_primes(double &amp;amp;middle, string &amp;amp;message)&lt;br&gt;//&amp;nbsp; считает среднее арифметическое суммы простых чисел с ввода&lt;br&gt;// middle - результат&amp;nbsp;&lt;br&gt;// message - пояснительное сообщение&lt;br&gt;&lt;/font&gt;" style="strokeWidth=2;html=1;shape=mxgraph.flowchart.annotation_2;align=left;labelPosition=right;pointerEvents=1;strokeColor=#000000;" parent="WIyWlLk6GJQsqaUBKTNV-1" vertex="1">
          <mxGeometry x="310" y="60" width="40" height="80" as="geometry" />
        </mxCell>
        <mxCell id="Qi15xtnJ09Df0GoSAWtn-2" style="edgeStyle=orthogonalEdgeStyle;rounded=0;orthogonalLoop=1;jettySize=auto;html=1;entryX=0.27;entryY=0.5;entryDx=0;entryDy=0;entryPerimeter=0;dashed=1;endArrow=none;endFill=0;strokeColor=#050505;" parent="WIyWlLk6GJQsqaUBKTNV-1" source="WIyWlLk6GJQsqaUBKTNV-3" target="Qi15xtnJ09Df0GoSAWtn-0" edge="1">
          <mxGeometry relative="1" as="geometry">
            <Array as="points">
              <mxPoint x="310" y="100" />
              <mxPoint x="310" y="100" />
            </Array>
          </mxGeometry>
        </mxCell>
        <mxCell id="Qi15xtnJ09Df0GoSAWtn-17" value="&lt;font color=&quot;#000000&quot;&gt;Конец&lt;/font&gt;" style="rounded=1;whiteSpace=wrap;html=1;fontSize=12;glass=0;strokeWidth=1;shadow=0;arcSize=50;strokeColor=#050505;fillColor=none;" parent="WIyWlLk6GJQsqaUBKTNV-1" vertex="1">
          <mxGeometry x="160" y="840" width="120" height="30" as="geometry" />
        </mxCell>
        <mxCell id="vsL5W6VhsvwQeHXMyWO6-5" style="edgeStyle=orthogonalEdgeStyle;shape=connector;rounded=0;orthogonalLoop=1;jettySize=auto;html=1;labelBackgroundColor=default;strokeColor=#000000;align=center;verticalAlign=middle;fontFamily=Helvetica;fontSize=11;fontColor=default;endArrow=classic;" edge="1" parent="WIyWlLk6GJQsqaUBKTNV-1" source="vsL5W6VhsvwQeHXMyWO6-1" target="vsL5W6VhsvwQeHXMyWO6-4">
          <mxGeometry relative="1" as="geometry" />
        </mxCell>
        <mxCell id="vsL5W6VhsvwQeHXMyWO6-1" value="&lt;font color=&quot;#030303&quot;&gt;sum := 0&lt;br&gt;count := 0&lt;br&gt;n := 0&lt;br&gt;&lt;/font&gt;" style="rounded=0;whiteSpace=wrap;html=1;strokeColor=#000000;align=center;verticalAlign=middle;fontFamily=Helvetica;fontSize=11;fontColor=default;fillColor=none;" vertex="1" parent="WIyWlLk6GJQsqaUBKTNV-1">
          <mxGeometry x="170" y="140" width="100" height="40" as="geometry" />
        </mxCell>
        <mxCell id="vsL5W6VhsvwQeHXMyWO6-8" style="edgeStyle=orthogonalEdgeStyle;hachureGap=4;orthogonalLoop=1;jettySize=auto;html=1;fontFamily=Architects Daughter;fontSource=https%3A%2F%2Ffonts.googleapis.com%2Fcss%3Ffamily%3DArchitects%2BDaughter;fontSize=16;strokeColor=#000000;rounded=0;" edge="1" parent="WIyWlLk6GJQsqaUBKTNV-1" source="vsL5W6VhsvwQeHXMyWO6-4" target="vsL5W6VhsvwQeHXMyWO6-6">
          <mxGeometry relative="1" as="geometry">
            <Array as="points">
              <mxPoint x="220" y="270" />
              <mxPoint x="220" y="270" />
            </Array>
          </mxGeometry>
        </mxCell>
        <mxCell id="vsL5W6VhsvwQeHXMyWO6-4" value="&lt;font color=&quot;#030303&quot;&gt;Ввод&amp;nbsp;(n)&lt;br&gt;&lt;/font&gt;" style="shape=parallelogram;perimeter=parallelogramPerimeter;whiteSpace=wrap;html=1;fixedSize=1;rounded=0;strokeColor=#000000;align=center;verticalAlign=middle;fontFamily=Helvetica;fontSize=11;fontColor=default;fillColor=none;" vertex="1" parent="WIyWlLk6GJQsqaUBKTNV-1">
          <mxGeometry x="170" y="210" width="100" height="40" as="geometry" />
        </mxCell>
        <mxCell id="vsL5W6VhsvwQeHXMyWO6-17" style="edgeStyle=orthogonalEdgeStyle;rounded=0;orthogonalLoop=1;jettySize=auto;html=1;strokeColor=#000000;" edge="1" parent="WIyWlLk6GJQsqaUBKTNV-1" source="vsL5W6VhsvwQeHXMyWO6-6" target="vsL5W6VhsvwQeHXMyWO6-12">
          <mxGeometry relative="1" as="geometry" />
        </mxCell>
        <mxCell id="vsL5W6VhsvwQeHXMyWO6-6" value="A пока n &amp;gt; 0" style="strokeWidth=1;html=1;shape=mxgraph.flowchart.loop_limit;whiteSpace=wrap;rounded=0;strokeColor=#000000;align=center;verticalAlign=middle;fontFamily=Helvetica;fontSize=11;fontColor=#000000;fillColor=none;" vertex="1" parent="WIyWlLk6GJQsqaUBKTNV-1">
          <mxGeometry x="170" y="280" width="100" height="30" as="geometry" />
        </mxCell>
        <mxCell id="vsL5W6VhsvwQeHXMyWO6-14" style="edgeStyle=orthogonalEdgeStyle;rounded=0;orthogonalLoop=1;jettySize=auto;html=1;strokeColor=#000000;" edge="1" parent="WIyWlLk6GJQsqaUBKTNV-1" source="vsL5W6VhsvwQeHXMyWO6-10" target="vsL5W6VhsvwQeHXMyWO6-13">
          <mxGeometry relative="1" as="geometry">
            <Array as="points">
              <mxPoint x="220" y="470" />
              <mxPoint x="220" y="470" />
            </Array>
          </mxGeometry>
        </mxCell>
        <mxCell id="vsL5W6VhsvwQeHXMyWO6-15" value="Yes" style="edgeLabel;html=1;align=center;verticalAlign=middle;resizable=0;points=[];labelBackgroundColor=none;fontColor=#000000;" vertex="1" connectable="0" parent="vsL5W6VhsvwQeHXMyWO6-14">
          <mxGeometry x="-0.1563" relative="1" as="geometry">
            <mxPoint x="-70" y="228" as="offset" />
          </mxGeometry>
        </mxCell>
        <mxCell id="vsL5W6VhsvwQeHXMyWO6-10" value="is_prime(n)" style="strokeWidth=1;html=1;shape=mxgraph.flowchart.decision;whiteSpace=wrap;fontSize=11;fillColor=none;strokeColor=#000000;rounded=0;fontColor=#000000;fillColor=none;" vertex="1" parent="WIyWlLk6GJQsqaUBKTNV-1">
          <mxGeometry x="170" y="400" width="100" height="60" as="geometry" />
        </mxCell>
        <mxCell id="vsL5W6VhsvwQeHXMyWO6-18" style="edgeStyle=orthogonalEdgeStyle;rounded=0;orthogonalLoop=1;jettySize=auto;html=1;strokeColor=#000000;" edge="1" parent="WIyWlLk6GJQsqaUBKTNV-1" source="vsL5W6VhsvwQeHXMyWO6-12" target="vsL5W6VhsvwQeHXMyWO6-10">
          <mxGeometry relative="1" as="geometry" />
        </mxCell>
        <mxCell id="vsL5W6VhsvwQeHXMyWO6-12" value="is_prime(n)" style="shape=process;whiteSpace=wrap;html=1;backgroundOutline=1;fontSize=11;fillColor=none;strokeColor=#000000;fontColor=#000000;strokeWidth=1;rounded=0;" vertex="1" parent="WIyWlLk6GJQsqaUBKTNV-1">
          <mxGeometry x="175" y="340" width="90" height="30" as="geometry" />
        </mxCell>
        <mxCell id="vsL5W6VhsvwQeHXMyWO6-21" style="edgeStyle=orthogonalEdgeStyle;rounded=0;orthogonalLoop=1;jettySize=auto;html=1;strokeColor=#000000;" edge="1" parent="WIyWlLk6GJQsqaUBKTNV-1" source="vsL5W6VhsvwQeHXMyWO6-13" target="vsL5W6VhsvwQeHXMyWO6-19">
          <mxGeometry relative="1" as="geometry" />
        </mxCell>
        <mxCell id="vsL5W6VhsvwQeHXMyWO6-13" value="&lt;font color=&quot;#030303&quot;&gt;sum := sum + n&lt;br&gt;count := count + 1&lt;br&gt;&lt;/font&gt;" style="rounded=0;whiteSpace=wrap;html=1;strokeColor=#000000;align=center;verticalAlign=middle;fontFamily=Helvetica;fontSize=11;fontColor=default;fillColor=none;" vertex="1" parent="WIyWlLk6GJQsqaUBKTNV-1">
          <mxGeometry x="170" y="490" width="100" height="40" as="geometry" />
        </mxCell>
        <mxCell id="vsL5W6VhsvwQeHXMyWO6-24" style="edgeStyle=orthogonalEdgeStyle;rounded=0;orthogonalLoop=1;jettySize=auto;html=1;strokeColor=#000000;" edge="1" parent="WIyWlLk6GJQsqaUBKTNV-1" source="vsL5W6VhsvwQeHXMyWO6-19" target="vsL5W6VhsvwQeHXMyWO6-23">
          <mxGeometry relative="1" as="geometry" />
        </mxCell>
        <mxCell id="vsL5W6VhsvwQeHXMyWO6-19" value="&lt;font color=&quot;#030303&quot;&gt;Ввод&amp;nbsp;(n)&lt;br&gt;&lt;/font&gt;" style="shape=parallelogram;perimeter=parallelogramPerimeter;whiteSpace=wrap;html=1;fixedSize=1;rounded=0;strokeColor=#000000;align=center;verticalAlign=middle;fontFamily=Helvetica;fontSize=11;fontColor=default;fillColor=none;" vertex="1" parent="WIyWlLk6GJQsqaUBKTNV-1">
          <mxGeometry x="170" y="560" width="100" height="40" as="geometry" />
        </mxCell>
        <mxCell id="vsL5W6VhsvwQeHXMyWO6-20" style="edgeStyle=orthogonalEdgeStyle;rounded=0;orthogonalLoop=1;jettySize=auto;html=1;strokeColor=#000000;entryX=1;entryY=0.5;entryDx=0;entryDy=0;" edge="1" parent="WIyWlLk6GJQsqaUBKTNV-1" source="vsL5W6VhsvwQeHXMyWO6-10" target="vsL5W6VhsvwQeHXMyWO6-19">
          <mxGeometry relative="1" as="geometry">
            <Array as="points">
              <mxPoint x="310" y="430" />
              <mxPoint x="310" y="580" />
            </Array>
          </mxGeometry>
        </mxCell>
        <mxCell id="vsL5W6VhsvwQeHXMyWO6-25" value="No" style="edgeLabel;html=1;align=center;verticalAlign=middle;resizable=0;points=[];labelBackgroundColor=none;fontColor=#000000;" vertex="1" connectable="0" parent="vsL5W6VhsvwQeHXMyWO6-20">
          <mxGeometry x="-0.8377" relative="1" as="geometry">
            <mxPoint y="-10" as="offset" />
          </mxGeometry>
        </mxCell>
        <mxCell id="vsL5W6VhsvwQeHXMyWO6-27" style="edgeStyle=orthogonalEdgeStyle;rounded=0;orthogonalLoop=1;jettySize=auto;html=1;strokeColor=#000000;" edge="1" parent="WIyWlLk6GJQsqaUBKTNV-1" source="vsL5W6VhsvwQeHXMyWO6-23" target="vsL5W6VhsvwQeHXMyWO6-26">
          <mxGeometry relative="1" as="geometry" />
        </mxCell>
        <mxCell id="vsL5W6VhsvwQeHXMyWO6-23" value="A&amp;nbsp;" style="strokeWidth=1;html=1;shape=mxgraph.flowchart.loop_limit;whiteSpace=wrap;rounded=0;strokeColor=#000000;align=center;verticalAlign=middle;fontFamily=Helvetica;fontSize=11;fontColor=#000000;fillColor=none;" vertex="1" parent="WIyWlLk6GJQsqaUBKTNV-1">
          <mxGeometry x="170" y="630" width="100" height="30" as="geometry" />
        </mxCell>
        <mxCell id="vsL5W6VhsvwQeHXMyWO6-31" style="edgeStyle=orthogonalEdgeStyle;rounded=0;orthogonalLoop=1;jettySize=auto;html=1;entryX=0.5;entryY=0;entryDx=0;entryDy=0;exitX=0;exitY=0.5;exitDx=0;exitDy=0;exitPerimeter=0;strokeColor=#000000;" edge="1" parent="WIyWlLk6GJQsqaUBKTNV-1" source="vsL5W6VhsvwQeHXMyWO6-26" target="vsL5W6VhsvwQeHXMyWO6-28">
          <mxGeometry relative="1" as="geometry" />
        </mxCell>
        <mxCell id="vsL5W6VhsvwQeHXMyWO6-26" value="count &amp;gt; 0" style="strokeWidth=1;html=1;shape=mxgraph.flowchart.decision;whiteSpace=wrap;fontSize=11;fillColor=none;strokeColor=#000000;rounded=0;fontColor=#000000;fillColor=none;" vertex="1" parent="WIyWlLk6GJQsqaUBKTNV-1">
          <mxGeometry x="170" y="690" width="100" height="60" as="geometry" />
        </mxCell>
        <mxCell id="vsL5W6VhsvwQeHXMyWO6-36" style="edgeStyle=orthogonalEdgeStyle;rounded=0;orthogonalLoop=1;jettySize=auto;html=1;strokeColor=#000000;" edge="1" parent="WIyWlLk6GJQsqaUBKTNV-1" source="vsL5W6VhsvwQeHXMyWO6-28" target="Qi15xtnJ09Df0GoSAWtn-17">
          <mxGeometry relative="1" as="geometry" />
        </mxCell>
        <mxCell id="vsL5W6VhsvwQeHXMyWO6-28" value="&lt;font color=&quot;#030303&quot;&gt;message := &quot;&lt;/font&gt;&lt;font color=&quot;#000000&quot;&gt;Среднее ...&amp;nbsp;&lt;span style=&quot;background-color: initial;&quot;&gt;&quot;&lt;br&gt;middle := float(sum) / count&lt;br&gt;&lt;/span&gt;&lt;/font&gt;" style="rounded=0;whiteSpace=wrap;html=1;strokeColor=#000000;align=center;verticalAlign=middle;fontFamily=Helvetica;fontSize=11;fontColor=default;fillColor=none;" vertex="1" parent="WIyWlLk6GJQsqaUBKTNV-1">
          <mxGeometry x="20" y="760" width="180" height="40" as="geometry" />
        </mxCell>
        <mxCell id="vsL5W6VhsvwQeHXMyWO6-35" style="edgeStyle=orthogonalEdgeStyle;rounded=0;orthogonalLoop=1;jettySize=auto;html=1;entryX=0.5;entryY=0;entryDx=0;entryDy=0;strokeColor=#000000;" edge="1" parent="WIyWlLk6GJQsqaUBKTNV-1" source="vsL5W6VhsvwQeHXMyWO6-30" target="Qi15xtnJ09Df0GoSAWtn-17">
          <mxGeometry relative="1" as="geometry" />
        </mxCell>
        <mxCell id="vsL5W6VhsvwQeHXMyWO6-30" value="&lt;font color=&quot;#030303&quot;&gt;message := &quot;&lt;/font&gt;&lt;font color=&quot;#000000&quot;&gt;Простых ...&amp;nbsp;&lt;span style=&quot;background-color: initial;&quot;&gt;&quot;&lt;br&gt;middle := -1.0&lt;br&gt;&lt;/span&gt;&lt;/font&gt;" style="rounded=0;whiteSpace=wrap;html=1;strokeColor=#000000;align=center;verticalAlign=middle;fontFamily=Helvetica;fontSize=11;fontColor=default;fillColor=none;" vertex="1" parent="WIyWlLk6GJQsqaUBKTNV-1">
          <mxGeometry x="240" y="760" width="180" height="40" as="geometry" />
        </mxCell>
        <mxCell id="vsL5W6VhsvwQeHXMyWO6-32" style="edgeStyle=orthogonalEdgeStyle;rounded=0;orthogonalLoop=1;jettySize=auto;html=1;entryX=0.535;entryY=0.044;entryDx=0;entryDy=0;entryPerimeter=0;exitX=1;exitY=0.5;exitDx=0;exitDy=0;exitPerimeter=0;strokeColor=#000000;" edge="1" parent="WIyWlLk6GJQsqaUBKTNV-1" source="vsL5W6VhsvwQeHXMyWO6-26" target="vsL5W6VhsvwQeHXMyWO6-30">
          <mxGeometry relative="1" as="geometry" />
        </mxCell>
        <mxCell id="vsL5W6VhsvwQeHXMyWO6-33" value="Yes" style="edgeLabel;html=1;align=center;verticalAlign=middle;resizable=0;points=[];labelBackgroundColor=none;fontColor=#000000;" vertex="1" connectable="0" parent="WIyWlLk6GJQsqaUBKTNV-1">
          <mxGeometry x="250.0344827586207" y="482.41379310344814" as="geometry" />
        </mxCell>
        <mxCell id="vsL5W6VhsvwQeHXMyWO6-34" value="No" style="edgeLabel;html=1;align=center;verticalAlign=middle;resizable=0;points=[];labelBackgroundColor=none;fontColor=#000000;" vertex="1" connectable="0" parent="WIyWlLk6GJQsqaUBKTNV-1">
          <mxGeometry x="290.00034482758616" y="700.0044827586207" as="geometry" />
        </mxCell>
      </root>
    </mxGraphModel>
  </diagram>
</mxfile>
